<svg xmlns="http://www.w3.org/2000/svg" viewBox="0 0 435.31 145"><defs><style>.a{fill:#f24647;}.b{fill:#ffcdab;}.c{fill:#c47e45;}.d{fill:#f4ba92;}.e{fill:#00cc85;}.f{fill:#6d3525;}.g{fill:#479ccc;}.h{fill:#ed3e79;}.i{fill:#f970a5;}.j{fill:#fff1b6;}.k{fill:#423632;}.l{fill:#70cf32;}</style></defs><title>geckothon-team</title><polyline class="a" points="163.77 126.71 169.8 138.21 181.49 138.59 186.39 121.62 172.44 122.37"/><rect class="b" x="139.83" y="87.88" width="69.86" height="28.71"/><path class="c" d="M500.46,2708.64c0,22.9-19.35,41.47-43.22,41.47s-42.51-18.65-42.51-41.56,18.66-41.39,42.51-41.39S500.46,2685.73,500.46,2708.64Z" transform="translate(-283.27 -2644.94)"/><circle class="b" cx="174.58" cy="78.38" r="36.64"/><path class="b" d="M491.24,2712.66s3.48-8.12,7.19-4.64,0.93,27.36-7,27.36" transform="translate(-283.27 -2644.94)"/><path class="b" d="M423.54,2712.66s-3.48-8.12-7.19-4.64-0.93,27.36,7,27.36" transform="translate(-283.27 -2644.94)"/><polygon class="d" points="171.1 62.85 171.8 94.9 178.99 84.88 171.1 62.85"/><path class="d" d="M449.16,2687.67s12.53,40.18,43.66,23.48l-1.92-3.13" transform="translate(-283.27 -2644.94)"/><path class="c" d="M449.68,2687.36s14.34,33.47,42.67,23.2C492.35,2710.57,485.5,2679.61,449.68,2687.36Z" transform="translate(-283.27 -2644.94)"/><path class="b" d="M446,2745.59s4,5.21,10.29,5.21a10,10,0,0,0,8.81-5.21s0.51,6.95-8.87,7.09S446,2745.59,446,2745.59Z" transform="translate(-283.27 -2644.94)"/><polyline class="b" points="140.34 116.33 175.17 122.75 209.19 118.11 208.42 105.92"/><path class="c" d="M430.26,2673.6s44.12-12.06,49.4-28.66c0,0,22.24,39.6,20,55.06" transform="translate(-283.27 -2644.94)"/><polygon class="e" points="196.95 144.81 200.16 124.07 214.11 126.15 209.96 114.27 174.89 122.18 196.95 144.81"/><polygon class="e" points="152.45 145 149.25 124.07 135.29 126.15 139.44 114.27 174.51 122.37 152.45 145"/><polygon class="c" points="165.56 37.91 168.38 43.84 185.91 48.09 188.75 28.85 175.46 26.03 165.56 37.91"/><path class="f" d="M307.47,2757.14l-22.29-.31s-16.74-81.62,48.87-92.76" transform="translate(-283.27 -2644.94)"/><path class="f" d="M373.43,2757.14l22.28-.31s16.74-81.62-48.86-92.76" transform="translate(-283.27 -2644.94)"/><ellipse class="f" cx="57.16" cy="70.85" rx="45.87" ry="52.19"/><rect class="b" x="24.2" y="85.13" width="66.69" height="27.4"/><path class="f" d="M381.31,2705a41.05,41.05,0,0,1-41.25,40.85,40.86,40.86,0,0,1,0-81.71A41.06,41.06,0,0,1,381.31,2705Z" transform="translate(-283.27 -2644.94)"/><circle class="b" cx="57.37" cy="76.07" r="34.97"/><path class="b" d="M372.51,2710.83s3.33-7.75,6.87-4.43,0.88,26.12-6.63,26.12" transform="translate(-283.27 -2644.94)"/><path class="b" d="M307.89,2710.83s-3.33-7.75-6.86-4.43-0.89,26.12,6.64,26.12" transform="translate(-283.27 -2644.94)"/><polygon class="d" points="54.04 61.24 54.71 91.84 61.58 82.27 54.04 61.24"/><path class="d" d="M332.34,2687s12,38.35,41.67,22.41l-1.83-3" transform="translate(-283.27 -2644.94)"/><path class="f" d="M332.84,2686.68s13.7,32,40.73,22.15c0,0,3.23-4.21,2.12-6.76-3.59-8.22-17.7-22.66-41.77-18.83C332.92,2683.41,333.9,2686.45,332.84,2686.68Z" transform="translate(-283.27 -2644.94)"/><polyline class="b" points="24.69 112.29 58.21 123.2 90.4 113.99 89.68 102.35"/><path class="g" d="M307.4,2756.34s-4.28,12,4.62,12.32,10.78-6.85,10.78-6.85-6,11.64,3.25,12.84,15.43-6.51,15.43-6.51" transform="translate(-283.27 -2644.94)"/><path class="g" d="M375,2756.51s4.28,12-4.62,12.32-10.79-6.85-10.79-6.85,6,11.63-3.26,12.83-15.42-6.51-15.42-6.51" transform="translate(-283.27 -2644.94)"/><path class="h" d="M329.8,2747.91a28.7,28.7,0,0,0,2.49-2c3.83-3.41,8.19-.28,8.19-0.28s4-2.87,7.82-.3a28.74,28.74,0,0,1,2.85,2.58s-7.12,1.81-10.51,1.81S329.8,2747.91,329.8,2747.91Z" transform="translate(-283.27 -2644.94)"/><path class="i" d="M329.8,2747.9s11.07,11.24,21.26-.07a40.28,40.28,0,0,1-11,1.2A64.24,64.24,0,0,1,329.8,2747.9Z" transform="translate(-283.27 -2644.94)"/><polyline class="h" points="29.18 55.27 23.51 51.49 26.84 47.71 32.6 51.67"/><ellipse class="j" cx="279.81" cy="61.14" rx="45.53" ry="52.11"/><rect class="b" x="247.1" y="75.61" width="66.19" height="27.19"/><path class="j" d="M603.66,2695.34a40.86,40.86,0,0,1-40.95,40.78c-22.61,0-40.29-18.34-40.29-40.87s17.68-40.7,40.29-40.7A40.87,40.87,0,0,1,603.66,2695.34Z" transform="translate(-283.27 -2644.94)"/><ellipse class="b" cx="280.02" cy="66.61" rx="34.71" ry="34.71"/><path class="b" d="M594.93,2701.45s3.3-7.69,6.81-4.4,0.87,25.93-6.59,25.93" transform="translate(-283.27 -2644.94)"/><path class="b" d="M530.78,2701.45s-3.29-7.69-6.81-4.4-0.88,25.93,6.59,25.93" transform="translate(-283.27 -2644.94)"/><polygon class="d" points="276.72 51.89 277.38 82.26 284.2 72.76 276.72 51.89"/><path class="d" d="M555.06,2677.77s11.86,38.06,41.36,22.25l-1.82-3" transform="translate(-283.27 -2644.94)"/><path class="j" d="M555.55,2677.48s13.59,31.71,40.43,22c0,0,3.2-4.18,2.11-6.7-3.56-8.16-17.57-22.49-41.45-18.69C555.63,2674.24,556.6,2677.25,555.55,2677.48Z" transform="translate(-283.27 -2644.94)"/><polyline class="b" points="247.58 102.57 280.86 113.39 312.81 104.25 312.09 92.69"/><path class="h" d="M530.29,2746.62s-4.24,11.89,4.59,12.23,10.7-6.79,10.7-6.79-5.94,11.55,3.23,12.74,15.32-6.47,15.32-6.47" transform="translate(-283.27 -2644.94)"/><path class="h" d="M597.43,2746.79s4.25,11.89-4.59,12.23-10.71-6.8-10.71-6.8,5.94,11.55-3.22,12.74-15.32-6.46-15.32-6.46" transform="translate(-283.27 -2644.94)"/><path class="j" d="M596.73,2722.67l-14.64,66.2a44.87,44.87,0,0,0,15.93-3.58c10.57-4.54,13-10.4,13-10.4s-7.52-34.18-3.44-56" transform="translate(-283.27 -2644.94)"/><path class="h" d="M549.55,2745.78a29.53,29.53,0,0,0,2.45-2c3.78-3.37,8.08-.28,8.08-0.28s4-2.83,7.73-.3a28.7,28.7,0,0,1,2.8,2.55s-7,1.79-10.37,1.79S549.55,2745.78,549.55,2745.78Z" transform="translate(-283.27 -2644.94)"/><path class="i" d="M549.55,2745.77s10.92,11.09,21-.07a39.8,39.8,0,0,1-10.87,1.18A63.47,63.47,0,0,1,549.55,2745.77Z" transform="translate(-283.27 -2644.94)"/><rect class="b" x="355.57" y="83.61" width="72.01" height="29.59"/><path class="k" d="M718.58,2703.61c0,23.62-19.94,42.76-44.54,42.76s-43.83-19.23-43.83-42.85,19.22-42.66,43.83-42.66S718.58,2680,718.58,2703.61Z" transform="translate(-283.27 -2644.94)"/><circle class="b" cx="391.39" cy="73.82" r="37.77"/><path class="b" d="M709.08,2707.76s3.59-8.36,7.41-4.78,1,28.2-7.17,28.2" transform="translate(-283.27 -2644.94)"/><path class="b" d="M639.29,2707.76s-3.59-8.36-7.41-4.78-1,28.2,7.17,28.2" transform="translate(-283.27 -2644.94)"/><polygon class="d" points="387.8 57.81 388.52 90.84 395.92 80.51 387.8 57.81"/><path class="d" d="M665.69,2682s12.91,41.41,45,24.2l-2-3.23" transform="translate(-283.27 -2644.94)"/><path class="k" d="M666.24,2681.69s14.79,34.5,44,23.93C710.22,2705.61,703.17,2673.7,666.24,2681.69Z" transform="translate(-283.27 -2644.94)"/><path class="b" d="M662.48,2741.71s4.12,5.37,10.61,5.37a10.31,10.31,0,0,0,9.08-5.37s0.52,7.16-9.14,7.31S662.48,2741.71,662.48,2741.71Z" transform="translate(-283.27 -2644.94)"/><polyline class="b" points="356.09 112.94 392.72 120.49 427.06 114.77 426.28 102.2"/><polyline class="l" points="391.84 120.2 385.95 137.03 353.74 119.22 355.83 113.2"/><polyline class="l" points="392.22 120.33 397.8 137.03 430.01 119.22 427.91 113.2"/><polygon class="k" points="382.43 30.95 386.08 39.26 419.95 55.53 426.93 44.9 402.02 28.3 382.43 30.95"/></svg>