<svg xmlns="http://www.w3.org/2000/svg" viewBox="0 0 326.27 335.8"><defs><style>.a{fill:#429bce;}.b{fill:#61b729;}.c{fill:#70cf32;}.d{fill:#8fea54;}.e{fill:#2d3033;}.f{fill:#9bea68;}.g{fill:#889096;}.h{fill:none;stroke:#61b729;stroke-width:10.3px;}.h,.j{stroke-linecap:round;stroke-linejoin:round;}.i,.j{fill:#fff;stroke:#429bce;stroke-width:4.88px;}.i{stroke-miterlimit:10;}</style></defs><title>moko_monster</title><polyline class="a" points="94.2 332.89 94.2 154.73 98.39 154.73 98.39 335.8"/><polyline class="a" points="0 286.96 0 154.73 4.19 154.73 4.19 284.06"/><rect class="a" x="11.45" y="204.47" width="75.49" height="5.81"/><rect class="a" x="11.45" y="216.24" width="75.49" height="4.36"/><rect class="a" x="11.45" y="227.86" width="75.49" height="5.81"/><rect class="a" x="11.45" y="240.92" width="75.49" height="5.81"/><rect class="a" x="11.45" y="253.45" width="75.49" height="4.89"/><rect class="a" x="11.45" y="265.6" width="75.49" height="5.81"/><rect class="a" x="21.61" y="185.92" width="14.52" height="7.26"/><rect class="a" x="41.93" y="185.92" width="14.52" height="7.26"/><rect class="a" x="62.26" y="185.92" width="13.07" height="7.26"/><rect class="a" y="154.73" width="97.1" height="4.26"/><path class="b" d="M724.58,1582.09s-20.12,4.8-32.74-12.87c-14.88-20.82-27.62-4-27.62-4l0.14-29.17s18.19-4.22,26.51,12.41S724.58,1582.09,724.58,1582.09Z" transform="translate(-566.21 -1312.88)"/><path class="b" d="M716.23,1456.75s1.28,28.23-15.38,34.21c-24.94,9-36.48-13-36.48-13v22.46s18.17,10,37.68,4.14c25.13-7.57,26.12-33.45,26.12-33.45Z" transform="translate(-566.21 -1312.88)"/><path class="c" d="M732.28,1437.27s19.57,29.93,28.15,71.12c9.06,43.49-16.85,66.23-32.27,72.57-24.75,10.17-26.71-34-43.47-25.47-14.18,7.25,3.73,36.28-26.42,59.58-13.18,10.18-31.67,8.78-25.62-9.59,0.24-.74,7.4-1.7,7-4.86-0.36-3-9.26-.52-9.29-1.39q-0.07-1.81-.07-3.78a99.31,99.31,0,0,1,.6-11.43c0.06-.54,8,0.61,8.38-1.6,0.45-2.47-5.79-3.18-5.94-4-2.41-13.28,6.58-13.28,11-10.16,7.2,5.07,6.47,13.63,14.9,8.41,8.58-5.32.55-25.85,18.24-34.83,8.15-4.14,12,.2,19.92-4.9,26.72-17.18,22.66-67.16,14.4-93.2Z" transform="translate(-566.21 -1312.88)"/><path class="d" d="M684.7,1541.28s8.1-1.84,13.89,2.2,22.36,0.8,29.58-14.14c11.61-24-10.73-32.22-10.73-32.22a19.06,19.06,0,0,1-3.55,8.25,65.05,65.05,0,0,0-16.22,11.88C687.65,1527.17,684.7,1541.28,684.7,1541.28Z" transform="translate(-566.21 -1312.88)"/><path class="c" d="M660.72,1467.79H616.07s7.92-10.6,27-10.16S660.72,1467.79,660.72,1467.79Z" transform="translate(-566.21 -1312.88)"/><path class="c" d="M737.91,1559.13s13.94,20.4,46.22,14.09c29.82-5.83,33-39.25,33-39.25s-4.45,20.78-26.23,23.55c-28.33,3.61-32.52-17.2-32.87-42.37" transform="translate(-566.21 -1312.88)"/><circle class="d" cx="51.85" cy="145.98" r="9.15"/><circle class="d" cx="73.97" cy="144.97" r="10.16"/><circle class="d" cx="100.24" cy="172.42" r="9.85"/><circle class="d" cx="67.32" cy="258.53" r="9.37"/><circle class="d" cx="67.15" cy="300.46" r="9.54"/><circle class="d" cx="60.92" cy="279.21" r="10.34"/><path class="b" d="M712.69,1444.74l20.84-7.48,10.92,22.91a38.57,38.57,0,0,0-17.54-2.33,16.51,16.51,0,0,0-10.61,5.3Z" transform="translate(-566.21 -1312.88)"/><path class="c" d="M718.65,1552.07a14.55,14.55,0,0,1-10.83-1.89c-5.84-3.41-19.71-15.81-27.81-14.49-8.27,1.35-14.41,5-15.54,31.54s7.75-2.37,7.75-2.37,0.09-18,9.62-19.75,23.32,14.54,23.32,14.54Z" transform="translate(-566.21 -1312.88)"/><path class="b" d="M746.51,1313.5s-26.47,10-35.29,43.49l29.92-12.24Z" transform="translate(-566.21 -1312.88)"/><path class="c" d="M641.51,1339.53c19-8.48,38,16.58,63.29,8.67,4.12-1.29,18.23-2.84,23.4-9.13,6.5-7.91,11.56-24.41,19.88-25.94,14.92-2.74,43,17.92,36.34,71-4,32.23-15,51.24-34.24,59.85-21.57,9.65-73.34,15.07-105.43-21.1C608.58,1382.07,622.53,1348,641.51,1339.53Z" transform="translate(-566.21 -1312.88)"/><ellipse class="e" cx="770.95" cy="1357.5" rx="17.29" ry="26.68" transform="translate(-924.99 -1032.83) rotate(-16.76)"/><ellipse class="e" cx="666.3" cy="1389.91" rx="25.58" ry="30.24" transform="translate(-979.52 -1023.08) rotate(-18.85)"/><path class="f" d="M719.71,1344.34s15.93,8,14.32,40.36c0,0-16.84-27.71-37.82-35A105.74,105.74,0,0,1,719.71,1344.34Z" transform="translate(-566.21 -1312.88)"/><ellipse class="b" cx="731.7" cy="1401.92" rx="5.63" ry="3.41" transform="translate(-1254.34 785.33) rotate(-88.56)"/><ellipse class="b" cx="748.6" cy="1395.62" rx="2.77" ry="5.63" transform="translate(-1310.66 -445.42) rotate(-42.31)"/><ellipse class="g" cx="775.98" cy="1355.83" rx="5.28" ry="6.33" transform="translate(-1042.45 -891.06) rotate(-23.5)"/><ellipse class="g" cx="670.13" cy="1387.68" rx="6.42" ry="7.19" transform="translate(-930.22 -1067.7) rotate(-16.37)"/><line class="h" x1="76.69" y1="46.05" x2="120.09" y2="52.37"/><line class="h" x1="200.85" y1="9.37" x2="183.06" y2="32.68"/><path class="b" d="M739.64,1475.93a124.66,124.66,0,0,1,11.45,12.2,93.68,93.68,0,0,1,7.22,11.08s-3.55-15.23-7-22.15S739.64,1475.93,739.64,1475.93Z" transform="translate(-566.21 -1312.88)"/><path class="c" d="M744.76,1460.87s25.63,32.59,58.51-18.3c8.37-12.95,12.55-14.86,12.55-14.86s0.36,41.61-38.31,57.6c-29.81,12.32-41.11-13.43-41.11-13.43" transform="translate(-566.21 -1312.88)"/><circle class="d" cx="844.45" cy="1405.5" r="9.8" transform="translate(-1190.84 820.87) rotate(-85.37)"/><circle class="d" cx="826.11" cy="1394.81" r="9.4" transform="translate(-1197.05 792.75) rotate(-85.37)"/><circle class="d" cx="798.09" cy="1425.19" r="9.95" transform="translate(-1253.08 792.75) rotate(-85.37)"/><polygon class="i" points="229.57 107.89 250.21 93.9 318.44 137.75 297.18 153.3 229.57 107.89"/><path class="j" d="M804.25,1439.13c0,7.53,5,14.93,15.34,13.39,13.11-2,58.45-50.71,58.45-50.71s-59.22,22.39-64.45,24.48S804.25,1430.76,804.25,1439.13Z" transform="translate(-566.21 -1312.88)"/><polygon class="i" points="227.9 89.48 248.53 75.48 318.44 119.34 297.18 134.89 227.9 89.48"/><line class="i" x1="226.81" y1="132.54" x2="258.6" y2="127.84"/><line class="i" x1="241.03" y1="116.78" x2="244.61" y2="146.9"/><line class="i" x1="285.83" y1="127.65" x2="286.81" y2="137.52"/><polygon class="j" points="305.13 93.96 321.87 54.62 323.82 80.78 305.13 93.96"/><line class="i" x1="253" y1="105.93" x2="243.33" y2="107.73"/></svg>